<svg width="20" height="20" viewBox="0 0 20 20" fill="none" xmlns="http://www.w3.org/2000/svg">
<circle cx="10" cy="10" r="9.5" stroke="#8D8D94"/>
<path d="M9.15625 12.2109V11.6328C9.15625 11.1328 9.26302 10.6979 9.47656 10.3281C9.6901 9.95833 10.0807 9.5651 10.6484 9.14844C11.1953 8.75781 11.5547 8.4401 11.7266 8.19531C11.9036 7.95052 11.9922 7.67708 11.9922 7.375C11.9922 7.03646 11.8672 6.77865 11.6172 6.60156C11.3672 6.42448 11.0182 6.33594 10.5703 6.33594C9.78906 6.33594 8.89844 6.59115 7.89844 7.10156L7.04688 5.39062C8.20833 4.73958 9.4401 4.41406 10.7422 4.41406C11.8151 4.41406 12.6667 4.67188 13.2969 5.1875C13.9323 5.70312 14.25 6.39062 14.25 7.25C14.25 7.82292 14.1198 8.31771 13.8594 8.73438C13.599 9.15104 13.1042 9.61979 12.375 10.1406C11.875 10.5104 11.5573 10.7917 11.4219 10.9844C11.2917 11.1771 11.2266 11.4297 11.2266 11.7422V12.2109H9.15625ZM8.90625 14.8828C8.90625 14.4453 9.02344 14.1146 9.25781 13.8906C9.49219 13.6667 9.83333 13.5547 10.2812 13.5547C10.7135 13.5547 11.0469 13.6693 11.2812 13.8984C11.5208 14.1276 11.6406 14.4557 11.6406 14.8828C11.6406 15.2943 11.5208 15.6198 11.2812 15.8594C11.0417 16.0938 10.7083 16.2109 10.2812 16.2109C9.84375 16.2109 9.50521 16.0964 9.26562 15.8672C9.02604 15.6328 8.90625 15.3047 8.90625 14.8828Z" fill="#8D8D94"/>
</svg>
