<svg width="120" height="24" viewBox="0 0 120 24" fill="none" xmlns="http://www.w3.org/2000/svg">
  <path
    d="M96.1386 6.9H100.99V23.4H97.0297L96.7327 21.1H96.6337C95.2475 22.8 93.6634 23.8 91.3861 23.8C87.8218 23.8 86.3366 21.3 86.3366 17.1V6.9H91.1881V16.5C91.1881 18.9 91.7822 19.6 93.2673 19.6C94.5545 19.6 95.2475 19 96.2376 17.8V6.8H96.1386V6.9ZM58.4158 13.5C56.7327 12.9 55.1485 12.5 55.1485 11.4C55.1485 10.6 55.7426 10 57.0297 10C58.1188 10 59.3069 10.6 60.396 11.4L62.5743 8.4C61.1881 7.4 59.3069 6.3 56.8317 6.3C53.0693 6.3 50.5941 8.4 50.5941 11.6C50.5941 14.3 52.8713 15.7 54.9505 16.5C56.6337 17.1 58.2178 17.6 58.2178 18.8C58.2178 19.6 57.6238 20.2 56.1386 20.2C54.7525 20.2 53.4653 19.6 51.8812 18.4L49.703 21.4C51.4851 23 53.9604 24 56.1386 24C60.4951 24 62.8713 21.7 62.8713 18.7C62.7723 15.5 60.495 14.3 58.4158 13.5ZM78.5149 10H71.0891V1.7H66.2376V23.4H71.0891V14.4H78.5149V23.5H83.3663V1.7H78.5149V10ZM120 14.9C120 20.6 116.733 23.9 113.069 23.9C111.683 23.9 110.099 23.2 108.812 21.7H108.713L108.317 23.5H104.554V0H109.406V5.7L109.307 8.2C110.594 7.1 112.079 6.3 113.663 6.3C117.426 6.5 120 9.7 120 14.9ZM115.049 15C115.049 12 114.059 10.5 112.277 10.5C111.287 10.5 110.396 10.9 109.505 11.9V18.7C110.297 19.4 111.287 19.7 112.079 19.7C113.663 19.8 115.049 18.3 115.049 15ZM43.4653 13.5C41.7822 12.9 40.198 12.5 40.198 11.4C40.198 10.6 40.7921 10 42.0792 10C43.1683 10 44.3564 10.6 45.4455 11.4L47.6238 8.4C46.2376 7.4 44.3564 6.3 41.8812 6.3C38.1188 6.3 35.6436 8.4 35.6436 11.6C35.6436 14.3 37.9208 15.7 40 16.5C41.6832 17.1 43.2673 17.6 43.2673 18.8C43.2673 19.6 42.6733 20.2 41.1881 20.2C39.802 20.2 38.5149 19.6 36.9307 18.4L34.7525 21.4C36.4356 22.8 38.8119 23.7 41.0891 23.7C45.4455 23.7 47.8218 21.4 47.8218 18.4C47.7228 15.5 45.4455 14.3 43.4653 13.5ZM15.9406 8.7C15.9406 13.8 12.1782 16 7.52475 16H4.85149V23.4H0V1.7H7.32673C12.0792 1.7 15.9406 3.3 15.9406 8.7ZM11.0891 8.7C11.0891 6.4 9.70297 5.6 7.0297 5.6H4.85149V12.2H7.22772C9.90099 12.1 11.0891 10.9 11.0891 8.7ZM32.5743 13.5V22.2C32.5743 22.8 31.9802 23.5 31.2871 23.5H18.9109C18.3168 23.5 17.6238 22.9 17.6238 22.2V13.5C17.6238 12.9 18.2178 12.2 18.9109 12.2H28.4158V9.8C28.4158 8.2 27.0297 7 25.1485 7C23.4653 7 22.1782 8 21.8812 9.4C21.8812 9.6 21.6832 9.8 21.2871 9.8H19.604C19.3069 9.8 19.0099 9.6 19.0099 9.2C19.505 6.6 21.9802 4.4 25.0495 4.4C28.3168 4.4 30.9901 6.8 30.9901 9.8V12.2H31.2871C32.0792 12.3 32.5743 12.8 32.5743 13.5ZM26.9307 17.1C26.9307 16.1 26.2376 15.4 25.2475 15.4C24.2574 15.4 23.5644 16.1 23.5644 17.1C23.5644 17.7 23.8614 18.1 24.2574 18.5V20.5C24.2574 20.8 24.4554 21.1 24.8515 21.1H25.8416C26.1386 21.1 26.4356 20.9 26.4356 20.5V18.5C26.6337 18.2 26.9307 17.7 26.9307 17.1Z"
    fill="#1B1B26" />
</svg>