<svg width="24" height="24" viewBox="0 0 24 24" fill="none" xmlns="http://www.w3.org/2000/svg">
  <path fill-rule="evenodd" clip-rule="evenodd"
    d="M21.27 2.63502C17.7567 -0.878338 12.1543 -0.878338 8.73591 2.63502C5.50742 5.8635 5.31751 10.9911 8.07122 14.5045L7.50148 15.0742H6.8368L0 21.911L2.08902 24L8.92582 17.1632V16.4985L9.49555 15.9288C13.0089 18.6825 18.1365 18.4926 21.365 15.2641C24.8783 11.7507 24.8783 6.14837 21.365 2.72997L21.27 2.63502ZM15.003 2.06528C16.8071 2.06528 18.5163 2.72997 19.8457 4.05935C21.1751 5.38872 21.8398 7.19288 21.8398 8.90208C21.8398 10.7062 21.1751 12.4154 19.8457 13.7448C18.5163 15.0742 16.7122 15.7389 15.003 15.7389C13.1988 15.7389 11.4896 15.0742 10.1602 13.7448C8.83086 12.4154 8.16617 10.6113 8.16617 8.90208C8.16617 7.09792 8.83086 5.38872 10.1602 4.05935C11.4896 2.72997 13.2938 2.06528 15.003 2.06528Z"
    fill="url(#paint0_linear_51_125)" />
  <defs>
    <linearGradient id="paint0_linear_51_125" x1="24" y1="0" x2="0" y2="0" gradientUnits="userSpaceOnUse">
      <stop stop-color="#40BB9D" />
      <stop offset="1" stop-color="#31BA68" />
    </linearGradient>
  </defs>
</svg>